solid ASCII
  facet normal -0.000000e+00 0.000000e+00 1.000000e+00
    outer loop
      vertex   -5.000000e+00 -2.000000e+00 4.000000e+00
      vertex   -5.500000e+00 -4.500000e+00 4.000000e+00
      vertex   -5.000000e-01 -2.000000e+00 4.000000e+00
    endloop
  endfacet
  facet normal 0.000000e+00 0.000000e+00 1.000000e+00
    outer loop
      vertex   -5.000000e-01 -2.000000e+00 4.000000e+00
      vertex   -5.500000e+00 -4.500000e+00 4.000000e+00
      vertex   5.500000e+00 -4.500000e+00 4.000000e+00
    endloop
  endfacet
  facet normal -0.000000e+00 0.000000e+00 1.000000e+00
    outer loop
      vertex   -5.000000e-01 -2.000000e+00 4.000000e+00
      vertex   5.500000e+00 -4.500000e+00 4.000000e+00
      vertex   2.304958e+00 -1.949856e+00 4.000000e+00
    endloop
  endfacet
  facet normal 0.000000e+00 0.000000e+00 1.000000e+00
    outer loop
      vertex   2.304958e+00 -1.949856e+00 4.000000e+00
      vertex   5.500000e+00 -4.500000e+00 4.000000e+00
      vertex   2.600540e+00 -1.994408e+00 4.000000e+00
    endloop
  endfacet
  facet normal 0.000000e+00 0.000000e+00 1.000000e+00
    outer loop
      vertex   2.600540e+00 -1.994408e+00 4.000000e+00
      vertex   5.500000e+00 -4.500000e+00 4.000000e+00
      vertex   2.899460e+00 -1.994408e+00 4.000000e+00
    endloop
  endfacet
  facet normal -0.000000e+00 0.000000e+00 1.000000e+00
    outer loop
      vertex   2.899460e+00 -1.994408e+00 4.000000e+00
      vertex   5.500000e+00 -4.500000e+00 4.000000e+00
      vertex   3.195042e+00 -1.949856e+00 4.000000e+00
    endloop
  endfacet
  facet normal -0.000000e+00 0.000000e+00 1.000000e+00
    outer loop
      vertex   3.195042e+00 -1.949856e+00 4.000000e+00
      vertex   5.500000e+00 -4.500000e+00 4.000000e+00
      vertex   3.480682e+00 -1.861747e+00 4.000000e+00
    endloop
  endfacet
  facet normal -0.000000e+00 0.000000e+00 1.000000e+00
    outer loop
      vertex   3.480682e+00 -1.861747e+00 4.000000e+00
      vertex   5.500000e+00 -4.500000e+00 4.000000e+00
      vertex   3.750000e+00 -1.732051e+00 4.000000e+00
    endloop
  endfacet
  facet normal -0.000000e+00 0.000000e+00 1.000000e+00
    outer loop
      vertex   3.750000e+00 -1.732051e+00 4.000000e+00
      vertex   5.500000e+00 -4.500000e+00 4.000000e+00
      vertex   3.996980e+00 -1.563663e+00 4.000000e+00
    endloop
  endfacet
  facet normal -0.000000e+00 0.000000e+00 1.000000e+00
    outer loop
      vertex   3.996980e+00 -1.563663e+00 4.000000e+00
      vertex   5.500000e+00 -4.500000e+00 4.000000e+00
      vertex   4.216104e+00 -1.360345e+00 4.000000e+00
    endloop
  endfacet
  facet normal -0.000000e+00 0.000000e+00 1.000000e+00
    outer loop
      vertex   4.216104e+00 -1.360345e+00 4.000000e+00
      vertex   5.500000e+00 -4.500000e+00 4.000000e+00
      vertex   4.402478e+00 -1.126640e+00 4.000000e+00
    endloop
  endfacet
  facet normal -0.000000e+00 0.000000e+00 1.000000e+00
    outer loop
      vertex   4.402478e+00 -1.126640e+00 4.000000e+00
      vertex   5.500000e+00 -4.500000e+00 4.000000e+00
      vertex   4.551938e+00 -8.677675e-01 4.000000e+00
    endloop
  endfacet
  facet normal -0.000000e+00 0.000000e+00 1.000000e+00
    outer loop
      vertex   4.551938e+00 -8.677675e-01 4.000000e+00
      vertex   5.500000e+00 -4.500000e+00 4.000000e+00
      vertex   4.661146e+00 -5.895103e-01 4.000000e+00
    endloop
  endfacet
  facet normal -0.000000e+00 0.000000e+00 1.000000e+00
    outer loop
      vertex   4.661146e+00 -5.895103e-01 4.000000e+00
      vertex   5.500000e+00 -4.500000e+00 4.000000e+00
      vertex   4.727662e+00 -2.980845e-01 4.000000e+00
    endloop
  endfacet
  facet normal -0.000000e+00 0.000000e+00 1.000000e+00
    outer loop
      vertex   4.727662e+00 -2.980845e-01 4.000000e+00
      vertex   5.500000e+00 -4.500000e+00 4.000000e+00
      vertex   4.750000e+00 0.000000e+00 4.000000e+00
    endloop
  endfacet
  facet normal -0.000000e+00 0.000000e+00 1.000000e+00
    outer loop
      vertex   4.750000e+00 0.000000e+00 4.000000e+00
      vertex   5.500000e+00 -4.500000e+00 4.000000e+00
      vertex   5.500000e+00 4.500000e+00 4.000000e+00
    endloop
  endfacet
  facet normal 0.000000e+00 -0.000000e+00 1.000000e+00
    outer loop
      vertex   4.750000e+00 0.000000e+00 4.000000e+00
      vertex   5.500000e+00 4.500000e+00 4.000000e+00
      vertex   4.727662e+00 2.980845e-01 4.000000e+00
    endloop
  endfacet
  facet normal 0.000000e+00 -0.000000e+00 1.000000e+00
    outer loop
      vertex   4.727662e+00 2.980845e-01 4.000000e+00
      vertex   5.500000e+00 4.500000e+00 4.000000e+00
      vertex   4.661146e+00 5.895103e-01 4.000000e+00
    endloop
  endfacet
  facet normal 0.000000e+00 -0.000000e+00 1.000000e+00
    outer loop
      vertex   4.661146e+00 5.895103e-01 4.000000e+00
      vertex   5.500000e+00 4.500000e+00 4.000000e+00
      vertex   4.551938e+00 8.677675e-01 4.000000e+00
    endloop
  endfacet
  facet normal 0.000000e+00 -0.000000e+00 1.000000e+00
    outer loop
      vertex   4.551938e+00 8.677675e-01 4.000000e+00
      vertex   5.500000e+00 4.500000e+00 4.000000e+00
      vertex   4.402478e+00 1.126640e+00 4.000000e+00
    endloop
  endfacet
  facet normal 0.000000e+00 -0.000000e+00 1.000000e+00
    outer loop
      vertex   4.402478e+00 1.126640e+00 4.000000e+00
      vertex   5.500000e+00 4.500000e+00 4.000000e+00
      vertex   4.216104e+00 1.360345e+00 4.000000e+00
    endloop
  endfacet
  facet normal 0.000000e+00 -0.000000e+00 1.000000e+00
    outer loop
      vertex   4.216104e+00 1.360345e+00 4.000000e+00
      vertex   5.500000e+00 4.500000e+00 4.000000e+00
      vertex   3.996980e+00 1.563663e+00 4.000000e+00
    endloop
  endfacet
  facet normal 0.000000e+00 -0.000000e+00 1.000000e+00
    outer loop
      vertex   3.996980e+00 1.563663e+00 4.000000e+00
      vertex   5.500000e+00 4.500000e+00 4.000000e+00
      vertex   3.750000e+00 1.732051e+00 4.000000e+00
    endloop
  endfacet
  facet normal 0.000000e+00 -0.000000e+00 1.000000e+00
    outer loop
      vertex   3.750000e+00 1.732051e+00 4.000000e+00
      vertex   5.500000e+00 4.500000e+00 4.000000e+00
      vertex   3.480682e+00 1.861747e+00 4.000000e+00
    endloop
  endfacet
  facet normal 0.000000e+00 -0.000000e+00 1.000000e+00
    outer loop
      vertex   3.480682e+00 1.861747e+00 4.000000e+00
      vertex   5.500000e+00 4.500000e+00 4.000000e+00
      vertex   3.195042e+00 1.949856e+00 4.000000e+00
    endloop
  endfacet
  facet normal 0.000000e+00 -0.000000e+00 1.000000e+00
    outer loop
      vertex   3.195042e+00 1.949856e+00 4.000000e+00
      vertex   5.500000e+00 4.500000e+00 4.000000e+00
      vertex   2.899460e+00 1.994408e+00 4.000000e+00
    endloop
  endfacet
  facet normal 0.000000e+00 -0.000000e+00 1.000000e+00
    outer loop
      vertex   2.899460e+00 1.994408e+00 4.000000e+00
      vertex   5.500000e+00 4.500000e+00 4.000000e+00
      vertex   2.600540e+00 1.994408e+00 4.000000e+00
    endloop
  endfacet
  facet normal 0.000000e+00 -0.000000e+00 1.000000e+00
    outer loop
      vertex   2.600540e+00 1.994408e+00 4.000000e+00
      vertex   5.500000e+00 4.500000e+00 4.000000e+00
      vertex   2.304958e+00 1.949856e+00 4.000000e+00
    endloop
  endfacet
  facet normal 0.000000e+00 -0.000000e+00 1.000000e+00
    outer loop
      vertex   2.304958e+00 1.949856e+00 4.000000e+00
      vertex   5.500000e+00 4.500000e+00 4.000000e+00
      vertex   -5.000000e-01 2.000000e+00 4.000000e+00
    endloop
  endfacet
  facet normal 0.000000e+00 0.000000e+00 1.000000e+00
    outer loop
      vertex   2.304958e+00 1.949856e+00 4.000000e+00
      vertex   -5.000000e-01 2.000000e+00 4.000000e+00
      vertex   2.019318e+00 1.861747e+00 4.000000e+00
    endloop
  endfacet
  facet normal 0.000000e+00 0.000000e+00 1.000000e+00
    outer loop
      vertex   2.019318e+00 1.861747e+00 4.000000e+00
      vertex   -5.000000e-01 2.000000e+00 4.000000e+00
      vertex   1.750000e+00 1.732051e+00 4.000000e+00
    endloop
  endfacet
  facet normal 0.000000e+00 0.000000e+00 1.000000e+00
    outer loop
      vertex   1.750000e+00 1.732051e+00 4.000000e+00
      vertex   -5.000000e-01 2.000000e+00 4.000000e+00
      vertex   1.503020e+00 1.563663e+00 4.000000e+00
    endloop
  endfacet
  facet normal 0.000000e+00 0.000000e+00 1.000000e+00
    outer loop
      vertex   1.503020e+00 1.563663e+00 4.000000e+00
      vertex   -5.000000e-01 2.000000e+00 4.000000e+00
      vertex   1.283896e+00 1.360345e+00 4.000000e+00
    endloop
  endfacet
  facet normal 0.000000e+00 0.000000e+00 1.000000e+00
    outer loop
      vertex   1.283896e+00 1.360345e+00 4.000000e+00
      vertex   -5.000000e-01 2.000000e+00 4.000000e+00
      vertex   1.097522e+00 1.126640e+00 4.000000e+00
    endloop
  endfacet
  facet normal 0.000000e+00 0.000000e+00 1.000000e+00
    outer loop
      vertex   1.097522e+00 1.126640e+00 4.000000e+00
      vertex   -5.000000e-01 2.000000e+00 4.000000e+00
      vertex   9.480623e-01 8.677675e-01 4.000000e+00
    endloop
  endfacet
  facet normal 0.000000e+00 0.000000e+00 1.000000e+00
    outer loop
      vertex   9.480623e-01 8.677675e-01 4.000000e+00
      vertex   -5.000000e-01 2.000000e+00 4.000000e+00
      vertex   8.388544e-01 5.895103e-01 4.000000e+00
    endloop
  endfacet
  facet normal 0.000000e+00 0.000000e+00 1.000000e+00
    outer loop
      vertex   8.388544e-01 5.895103e-01 4.000000e+00
      vertex   -5.000000e-01 2.000000e+00 4.000000e+00
      vertex   7.723383e-01 2.980845e-01 4.000000e+00
    endloop
  endfacet
  facet normal 0.000000e+00 0.000000e+00 1.000000e+00
    outer loop
      vertex   7.723383e-01 2.980845e-01 4.000000e+00
      vertex   -5.000000e-01 2.000000e+00 4.000000e+00
      vertex   7.500000e-01 -2.775558e-16 4.000000e+00
    endloop
  endfacet
  facet normal 0.000000e+00 0.000000e+00 1.000000e+00
    outer loop
      vertex   7.500000e-01 -2.775558e-16 4.000000e+00
      vertex   -5.000000e-01 2.000000e+00 4.000000e+00
      vertex   -5.000000e-01 -2.000000e+00 4.000000e+00
    endloop
  endfacet
  facet normal 0.000000e+00 0.000000e+00 1.000000e+00
    outer loop
      vertex   7.500000e-01 -2.775558e-16 4.000000e+00
      vertex   -5.000000e-01 -2.000000e+00 4.000000e+00
      vertex   7.723383e-01 -2.980845e-01 4.000000e+00
    endloop
  endfacet
  facet normal 0.000000e+00 0.000000e+00 1.000000e+00
    outer loop
      vertex   7.723383e-01 -2.980845e-01 4.000000e+00
      vertex   -5.000000e-01 -2.000000e+00 4.000000e+00
      vertex   8.388544e-01 -5.895103e-01 4.000000e+00
    endloop
  endfacet
  facet normal 0.000000e+00 0.000000e+00 1.000000e+00
    outer loop
      vertex   8.388544e-01 -5.895103e-01 4.000000e+00
      vertex   -5.000000e-01 -2.000000e+00 4.000000e+00
      vertex   9.480623e-01 -8.677675e-01 4.000000e+00
    endloop
  endfacet
  facet normal 0.000000e+00 0.000000e+00 1.000000e+00
    outer loop
      vertex   9.480623e-01 -8.677675e-01 4.000000e+00
      vertex   -5.000000e-01 -2.000000e+00 4.000000e+00
      vertex   1.097522e+00 -1.126640e+00 4.000000e+00
    endloop
  endfacet
  facet normal 0.000000e+00 0.000000e+00 1.000000e+00
    outer loop
      vertex   1.097522e+00 -1.126640e+00 4.000000e+00
      vertex   -5.000000e-01 -2.000000e+00 4.000000e+00
      vertex   1.283896e+00 -1.360345e+00 4.000000e+00
    endloop
  endfacet
  facet normal 0.000000e+00 0.000000e+00 1.000000e+00
    outer loop
      vertex   1.283896e+00 -1.360345e+00 4.000000e+00
      vertex   -5.000000e-01 -2.000000e+00 4.000000e+00
      vertex   1.503020e+00 -1.563663e+00 4.000000e+00
    endloop
  endfacet
  facet normal 0.000000e+00 0.000000e+00 1.000000e+00
    outer loop
      vertex   1.503020e+00 -1.563663e+00 4.000000e+00
      vertex   -5.000000e-01 -2.000000e+00 4.000000e+00
      vertex   1.750000e+00 -1.732051e+00 4.000000e+00
    endloop
  endfacet
  facet normal 0.000000e+00 0.000000e+00 1.000000e+00
    outer loop
      vertex   1.750000e+00 -1.732051e+00 4.000000e+00
      vertex   -5.000000e-01 -2.000000e+00 4.000000e+00
      vertex   2.019318e+00 -1.861747e+00 4.000000e+00
    endloop
  endfacet
  facet normal 0.000000e+00 0.000000e+00 1.000000e+00
    outer loop
      vertex   2.019318e+00 -1.861747e+00 4.000000e+00
      vertex   -5.000000e-01 -2.000000e+00 4.000000e+00
      vertex   2.304958e+00 -1.949856e+00 4.000000e+00
    endloop
  endfacet
  facet normal 0.000000e+00 -0.000000e+00 1.000000e+00
    outer loop
      vertex   -5.000000e+00 -2.000000e+00 4.000000e+00
      vertex   -5.000000e+00 2.000000e+00 4.000000e+00
      vertex   -5.500000e+00 -4.500000e+00 4.000000e+00
    endloop
  endfacet
  facet normal 0.000000e+00 0.000000e+00 1.000000e+00
    outer loop
      vertex   -5.500000e+00 -4.500000e+00 4.000000e+00
      vertex   -5.000000e+00 2.000000e+00 4.000000e+00
      vertex   -5.500000e+00 4.500000e+00 4.000000e+00
    endloop
  endfacet
  facet normal 0.000000e+00 0.000000e+00 1.000000e+00
    outer loop
      vertex   -5.500000e+00 4.500000e+00 4.000000e+00
      vertex   -5.000000e+00 2.000000e+00 4.000000e+00
      vertex   -5.000000e-01 2.000000e+00 4.000000e+00
    endloop
  endfacet
  facet normal -0.000000e+00 0.000000e+00 1.000000e+00
    outer loop
      vertex   -5.500000e+00 4.500000e+00 4.000000e+00
      vertex   -5.000000e-01 2.000000e+00 4.000000e+00
      vertex   5.500000e+00 4.500000e+00 4.000000e+00
    endloop
  endfacet
  facet normal 0.000000e+00 1.000000e+00 -0.000000e+00
    outer loop
      vertex   -5.000000e-01 2.000000e+00 4.000000e+00
      vertex   -5.000000e+00 2.000000e+00 4.000000e+00
      vertex   -5.000000e-01 2.000000e+00 3.200000e+01
    endloop
  endfacet
  facet normal 0.000000e+00 1.000000e+00 0.000000e+00
    outer loop
      vertex   -5.000000e-01 2.000000e+00 3.200000e+01
      vertex   -5.000000e+00 2.000000e+00 4.000000e+00
      vertex   -5.000000e+00 2.000000e+00 3.200000e+01
    endloop
  endfacet
  facet normal -1.000000e+00 0.000000e+00 0.000000e+00
    outer loop
      vertex   -5.000000e+00 2.000000e+00 4.000000e+00
      vertex   -5.000000e+00 -2.000000e+00 4.000000e+00
      vertex   -5.000000e+00 2.000000e+00 3.200000e+01
    endloop
  endfacet
  facet normal -1.000000e+00 -0.000000e+00 0.000000e+00
    outer loop
      vertex   -5.000000e+00 2.000000e+00 3.200000e+01
      vertex   -5.000000e+00 -2.000000e+00 4.000000e+00
      vertex   -5.000000e+00 -2.000000e+00 3.300000e+01
    endloop
  endfacet
  facet normal -1.000000e+00 0.000000e+00 0.000000e+00
    outer loop
      vertex   -5.000000e+00 2.000000e+00 3.200000e+01
      vertex   -5.000000e+00 -2.000000e+00 3.300000e+01
      vertex   -5.000000e+00 4.000000e+00 3.300000e+01
    endloop
  endfacet
  facet normal -1.000000e+00 0.000000e+00 -0.000000e+00
    outer loop
      vertex   -5.000000e+00 4.000000e+00 3.300000e+01
      vertex   -5.000000e+00 4.000000e+00 3.200000e+01
      vertex   -5.000000e+00 2.000000e+00 3.200000e+01
    endloop
  endfacet
  facet normal 0.000000e+00 0.000000e+00 -1.000000e+00
    outer loop
      vertex   -5.000000e-01 2.000000e+00 3.200000e+01
      vertex   -5.000000e+00 2.000000e+00 3.200000e+01
      vertex   -5.000000e-01 4.000000e+00 3.200000e+01
    endloop
  endfacet
  facet normal -0.000000e+00 0.000000e+00 -1.000000e+00
    outer loop
      vertex   -5.000000e-01 4.000000e+00 3.200000e+01
      vertex   -5.000000e+00 2.000000e+00 3.200000e+01
      vertex   -5.000000e+00 4.000000e+00 3.200000e+01
    endloop
  endfacet
  facet normal 0.000000e+00 1.000000e+00 0.000000e+00
    outer loop
      vertex   -5.000000e+00 4.000000e+00 3.200000e+01
      vertex   -5.000000e+00 4.000000e+00 3.300000e+01
      vertex   -5.000000e-01 4.000000e+00 3.200000e+01
    endloop
  endfacet
  facet normal 0.000000e+00 1.000000e+00 -0.000000e+00
    outer loop
      vertex   -5.000000e-01 4.000000e+00 3.200000e+01
      vertex   -5.000000e+00 4.000000e+00 3.300000e+01
      vertex   -5.000000e-01 4.000000e+00 3.300000e+01
    endloop
  endfacet
  facet normal -1.000000e+00 0.000000e+00 0.000000e+00
    outer loop
      vertex   -5.500000e+00 4.500000e+00 0.000000e+00
      vertex   -5.500000e+00 -4.500000e+00 0.000000e+00
      vertex   -5.500000e+00 4.500000e+00 4.000000e+00
    endloop
  endfacet
  facet normal -1.000000e+00 -0.000000e+00 0.000000e+00
    outer loop
      vertex   -5.500000e+00 4.500000e+00 4.000000e+00
      vertex   -5.500000e+00 -4.500000e+00 0.000000e+00
      vertex   -5.500000e+00 -4.500000e+00 4.000000e+00
    endloop
  endfacet
  facet normal 1.000000e+00 0.000000e+00 -0.000000e+00
    outer loop
      vertex   -5.000000e-01 2.000000e+00 4.000000e+00
      vertex   -5.000000e-01 2.000000e+00 3.200000e+01
      vertex   -5.000000e-01 -2.000000e+00 4.000000e+00
    endloop
  endfacet
  facet normal 1.000000e+00 0.000000e+00 0.000000e+00
    outer loop
      vertex   -5.000000e-01 -2.000000e+00 4.000000e+00
      vertex   -5.000000e-01 2.000000e+00 3.200000e+01
      vertex   -5.000000e-01 -2.000000e+00 3.300000e+01
    endloop
  endfacet
  facet normal 1.000000e+00 -0.000000e+00 0.000000e+00
    outer loop
      vertex   -5.000000e-01 -2.000000e+00 3.300000e+01
      vertex   -5.000000e-01 2.000000e+00 3.200000e+01
      vertex   -5.000000e-01 4.000000e+00 3.300000e+01
    endloop
  endfacet
  facet normal 1.000000e+00 0.000000e+00 0.000000e+00
    outer loop
      vertex   -5.000000e-01 4.000000e+00 3.300000e+01
      vertex   -5.000000e-01 2.000000e+00 3.200000e+01
      vertex   -5.000000e-01 4.000000e+00 3.200000e+01
    endloop
  endfacet
  facet normal 0.000000e+00 -1.000000e+00 0.000000e+00
    outer loop
      vertex   -5.000000e+00 -2.000000e+00 4.000000e+00
      vertex   -5.000000e-01 -2.000000e+00 4.000000e+00
      vertex   -5.000000e+00 -2.000000e+00 3.300000e+01
    endloop
  endfacet
  facet normal 0.000000e+00 -1.000000e+00 0.000000e+00
    outer loop
      vertex   -5.000000e+00 -2.000000e+00 3.300000e+01
      vertex   -5.000000e-01 -2.000000e+00 4.000000e+00
      vertex   -5.000000e-01 -2.000000e+00 3.300000e+01
    endloop
  endfacet
  facet normal 0.000000e+00 0.000000e+00 1.000000e+00
    outer loop
      vertex   -5.000000e+00 -2.000000e+00 3.300000e+01
      vertex   -5.000000e-01 -2.000000e+00 3.300000e+01
      vertex   -5.000000e+00 4.000000e+00 3.300000e+01
    endloop
  endfacet
  facet normal -0.000000e+00 0.000000e+00 1.000000e+00
    outer loop
      vertex   -5.000000e+00 4.000000e+00 3.300000e+01
      vertex   -5.000000e-01 -2.000000e+00 3.300000e+01
      vertex   -5.000000e-01 4.000000e+00 3.300000e+01
    endloop
  endfacet
  facet normal 9.972038e-01 7.473009e-02 0.000000e+00
    outer loop
      vertex   7.723383e-01 -2.980845e-01 4.000000e+00
      vertex   7.723383e-01 -2.980845e-01 0.000000e+00
      vertex   7.500000e-01 -2.775558e-16 4.000000e+00
    endloop
  endfacet
  facet normal 9.972038e-01 7.473009e-02 6.095434e-19
    outer loop
      vertex   7.500000e-01 -2.775558e-16 4.000000e+00
      vertex   7.723383e-01 -2.980845e-01 0.000000e+00
      vertex   7.500000e-01 -2.449294e-16 0.000000e+00
    endloop
  endfacet
  facet normal 9.972038e-01 -7.473009e-02 -6.095434e-19
    outer loop
      vertex   7.500000e-01 -2.775558e-16 4.000000e+00
      vertex   7.500000e-01 -2.449294e-16 0.000000e+00
      vertex   7.723383e-01 2.980845e-01 4.000000e+00
    endloop
  endfacet
  facet normal 9.972038e-01 -7.473009e-02 0.000000e+00
    outer loop
      vertex   7.723383e-01 2.980845e-01 4.000000e+00
      vertex   7.500000e-01 -2.449294e-16 0.000000e+00
      vertex   7.723383e-01 2.980845e-01 0.000000e+00
    endloop
  endfacet
  facet normal 9.749279e-01 -2.225209e-01 0.000000e+00
    outer loop
      vertex   7.723383e-01 2.980845e-01 4.000000e+00
      vertex   7.723383e-01 2.980845e-01 0.000000e+00
      vertex   8.388544e-01 5.895103e-01 4.000000e+00
    endloop
  endfacet
  facet normal 9.749279e-01 -2.225209e-01 0.000000e+00
    outer loop
      vertex   8.388544e-01 5.895103e-01 4.000000e+00
      vertex   7.723383e-01 2.980845e-01 0.000000e+00
      vertex   8.388544e-01 5.895103e-01 0.000000e+00
    endloop
  endfacet
  facet normal 9.308737e-01 -3.653410e-01 0.000000e+00
    outer loop
      vertex   8.388544e-01 5.895103e-01 4.000000e+00
      vertex   8.388544e-01 5.895103e-01 0.000000e+00
      vertex   9.480623e-01 8.677675e-01 4.000000e+00
    endloop
  endfacet
  facet normal 9.308737e-01 -3.653410e-01 0.000000e+00
    outer loop
      vertex   9.480623e-01 8.677675e-01 4.000000e+00
      vertex   8.388544e-01 5.895103e-01 0.000000e+00
      vertex   9.480623e-01 8.677675e-01 0.000000e+00
    endloop
  endfacet
  facet normal 8.660254e-01 -5.000000e-01 0.000000e+00
    outer loop
      vertex   9.480623e-01 8.677675e-01 4.000000e+00
      vertex   9.480623e-01 8.677675e-01 0.000000e+00
      vertex   1.097522e+00 1.126640e+00 4.000000e+00
    endloop
  endfacet
  facet normal 8.660254e-01 -5.000000e-01 0.000000e+00
    outer loop
      vertex   1.097522e+00 1.126640e+00 4.000000e+00
      vertex   9.480623e-01 8.677675e-01 0.000000e+00
      vertex   1.097522e+00 1.126640e+00 0.000000e+00
    endloop
  endfacet
  facet normal 7.818315e-01 -6.234898e-01 0.000000e+00
    outer loop
      vertex   1.097522e+00 1.126640e+00 4.000000e+00
      vertex   1.097522e+00 1.126640e+00 0.000000e+00
      vertex   1.283896e+00 1.360345e+00 4.000000e+00
    endloop
  endfacet
  facet normal 7.818315e-01 -6.234898e-01 0.000000e+00
    outer loop
      vertex   1.283896e+00 1.360345e+00 4.000000e+00
      vertex   1.097522e+00 1.126640e+00 0.000000e+00
      vertex   1.283896e+00 1.360345e+00 0.000000e+00
    endloop
  endfacet
  facet normal 6.801727e-01 -7.330519e-01 0.000000e+00
    outer loop
      vertex   1.283896e+00 1.360345e+00 4.000000e+00
      vertex   1.283896e+00 1.360345e+00 0.000000e+00
      vertex   1.503020e+00 1.563663e+00 4.000000e+00
    endloop
  endfacet
  facet normal 6.801727e-01 -7.330519e-01 0.000000e+00
    outer loop
      vertex   1.503020e+00 1.563663e+00 4.000000e+00
      vertex   1.283896e+00 1.360345e+00 0.000000e+00
      vertex   1.503020e+00 1.563663e+00 0.000000e+00
    endloop
  endfacet
  facet normal 5.633201e-01 -8.262388e-01 0.000000e+00
    outer loop
      vertex   1.503020e+00 1.563663e+00 4.000000e+00
      vertex   1.503020e+00 1.563663e+00 0.000000e+00
      vertex   1.750000e+00 1.732051e+00 4.000000e+00
    endloop
  endfacet
  facet normal 5.633201e-01 -8.262388e-01 0.000000e+00
    outer loop
      vertex   1.750000e+00 1.732051e+00 4.000000e+00
      vertex   1.503020e+00 1.563663e+00 0.000000e+00
      vertex   1.750000e+00 1.732051e+00 0.000000e+00
    endloop
  endfacet
  facet normal 4.338837e-01 -9.009689e-01 0.000000e+00
    outer loop
      vertex   1.750000e+00 1.732051e+00 4.000000e+00
      vertex   1.750000e+00 1.732051e+00 0.000000e+00
      vertex   2.019318e+00 1.861747e+00 4.000000e+00
    endloop
  endfacet
  facet normal 4.338837e-01 -9.009689e-01 0.000000e+00
    outer loop
      vertex   2.019318e+00 1.861747e+00 4.000000e+00
      vertex   1.750000e+00 1.732051e+00 0.000000e+00
      vertex   2.019318e+00 1.861747e+00 0.000000e+00
    endloop
  endfacet
  facet normal 2.947552e-01 -9.555728e-01 0.000000e+00
    outer loop
      vertex   2.019318e+00 1.861747e+00 4.000000e+00
      vertex   2.019318e+00 1.861747e+00 0.000000e+00
      vertex   2.304958e+00 1.949856e+00 4.000000e+00
    endloop
  endfacet
  facet normal 2.947552e-01 -9.555728e-01 0.000000e+00
    outer loop
      vertex   2.304958e+00 1.949856e+00 4.000000e+00
      vertex   2.019318e+00 1.861747e+00 0.000000e+00
      vertex   2.304958e+00 1.949856e+00 0.000000e+00
    endloop
  endfacet
  facet normal 1.490423e-01 -9.888308e-01 0.000000e+00
    outer loop
      vertex   2.304958e+00 1.949856e+00 4.000000e+00
      vertex   2.304958e+00 1.949856e+00 0.000000e+00
      vertex   2.600540e+00 1.994408e+00 4.000000e+00
    endloop
  endfacet
  facet normal 1.490423e-01 -9.888308e-01 0.000000e+00
    outer loop
      vertex   2.600540e+00 1.994408e+00 4.000000e+00
      vertex   2.304958e+00 1.949856e+00 0.000000e+00
      vertex   2.600540e+00 1.994408e+00 0.000000e+00
    endloop
  endfacet
  facet normal 0.000000e+00 -1.000000e+00 0.000000e+00
    outer loop
      vertex   2.600540e+00 1.994408e+00 4.000000e+00
      vertex   2.600540e+00 1.994408e+00 0.000000e+00
      vertex   2.899460e+00 1.994408e+00 4.000000e+00
    endloop
  endfacet
  facet normal 0.000000e+00 -1.000000e+00 -0.000000e+00
    outer loop
      vertex   2.899460e+00 1.994408e+00 4.000000e+00
      vertex   2.600540e+00 1.994408e+00 0.000000e+00
      vertex   2.899460e+00 1.994408e+00 0.000000e+00
    endloop
  endfacet
  facet normal -1.490423e-01 -9.888308e-01 -0.000000e+00
    outer loop
      vertex   2.899460e+00 1.994408e+00 4.000000e+00
      vertex   2.899460e+00 1.994408e+00 0.000000e+00
      vertex   3.195042e+00 1.949856e+00 4.000000e+00
    endloop
  endfacet
  facet normal -1.490423e-01 -9.888308e-01 -0.000000e+00
    outer loop
      vertex   3.195042e+00 1.949856e+00 4.000000e+00
      vertex   2.899460e+00 1.994408e+00 0.000000e+00
      vertex   3.195042e+00 1.949856e+00 0.000000e+00
    endloop
  endfacet
  facet normal -2.947552e-01 -9.555728e-01 -0.000000e+00
    outer loop
      vertex   3.195042e+00 1.949856e+00 4.000000e+00
      vertex   3.195042e+00 1.949856e+00 0.000000e+00
      vertex   3.480682e+00 1.861747e+00 4.000000e+00
    endloop
  endfacet
  facet normal -2.947552e-01 -9.555728e-01 -0.000000e+00
    outer loop
      vertex   3.480682e+00 1.861747e+00 4.000000e+00
      vertex   3.195042e+00 1.949856e+00 0.000000e+00
      vertex   3.480682e+00 1.861747e+00 0.000000e+00
    endloop
  endfacet
  facet normal -4.338837e-01 -9.009689e-01 -0.000000e+00
    outer loop
      vertex   3.480682e+00 1.861747e+00 4.000000e+00
      vertex   3.480682e+00 1.861747e+00 0.000000e+00
      vertex   3.750000e+00 1.732051e+00 4.000000e+00
    endloop
  endfacet
  facet normal -4.338837e-01 -9.009689e-01 -0.000000e+00
    outer loop
      vertex   3.750000e+00 1.732051e+00 4.000000e+00
      vertex   3.480682e+00 1.861747e+00 0.000000e+00
      vertex   3.750000e+00 1.732051e+00 0.000000e+00
    endloop
  endfacet
  facet normal -5.633201e-01 -8.262388e-01 -0.000000e+00
    outer loop
      vertex   3.750000e+00 1.732051e+00 4.000000e+00
      vertex   3.750000e+00 1.732051e+00 0.000000e+00
      vertex   3.996980e+00 1.563663e+00 4.000000e+00
    endloop
  endfacet
  facet normal -5.633201e-01 -8.262388e-01 -0.000000e+00
    outer loop
      vertex   3.996980e+00 1.563663e+00 4.000000e+00
      vertex   3.750000e+00 1.732051e+00 0.000000e+00
      vertex   3.996980e+00 1.563663e+00 0.000000e+00
    endloop
  endfacet
  facet normal -6.801727e-01 -7.330519e-01 -0.000000e+00
    outer loop
      vertex   3.996980e+00 1.563663e+00 4.000000e+00
      vertex   3.996980e+00 1.563663e+00 0.000000e+00
      vertex   4.216104e+00 1.360345e+00 4.000000e+00
    endloop
  endfacet
  facet normal -6.801727e-01 -7.330519e-01 -0.000000e+00
    outer loop
      vertex   4.216104e+00 1.360345e+00 4.000000e+00
      vertex   3.996980e+00 1.563663e+00 0.000000e+00
      vertex   4.216104e+00 1.360345e+00 0.000000e+00
    endloop
  endfacet
  facet normal -7.818315e-01 -6.234898e-01 -0.000000e+00
    outer loop
      vertex   4.216104e+00 1.360345e+00 4.000000e+00
      vertex   4.216104e+00 1.360345e+00 0.000000e+00
      vertex   4.402478e+00 1.126640e+00 4.000000e+00
    endloop
  endfacet
  facet normal -7.818315e-01 -6.234898e-01 -0.000000e+00
    outer loop
      vertex   4.402478e+00 1.126640e+00 4.000000e+00
      vertex   4.216104e+00 1.360345e+00 0.000000e+00
      vertex   4.402478e+00 1.126640e+00 0.000000e+00
    endloop
  endfacet
  facet normal -8.660254e-01 -5.000000e-01 -0.000000e+00
    outer loop
      vertex   4.402478e+00 1.126640e+00 4.000000e+00
      vertex   4.402478e+00 1.126640e+00 0.000000e+00
      vertex   4.551938e+00 8.677675e-01 4.000000e+00
    endloop
  endfacet
  facet normal -8.660254e-01 -5.000000e-01 -0.000000e+00
    outer loop
      vertex   4.551938e+00 8.677675e-01 4.000000e+00
      vertex   4.402478e+00 1.126640e+00 0.000000e+00
      vertex   4.551938e+00 8.677675e-01 0.000000e+00
    endloop
  endfacet
  facet normal -9.308737e-01 -3.653410e-01 -0.000000e+00
    outer loop
      vertex   4.551938e+00 8.677675e-01 4.000000e+00
      vertex   4.551938e+00 8.677675e-01 0.000000e+00
      vertex   4.661146e+00 5.895103e-01 4.000000e+00
    endloop
  endfacet
  facet normal -9.308737e-01 -3.653410e-01 -0.000000e+00
    outer loop
      vertex   4.661146e+00 5.895103e-01 4.000000e+00
      vertex   4.551938e+00 8.677675e-01 0.000000e+00
      vertex   4.661146e+00 5.895103e-01 0.000000e+00
    endloop
  endfacet
  facet normal -9.749279e-01 -2.225209e-01 -0.000000e+00
    outer loop
      vertex   4.661146e+00 5.895103e-01 4.000000e+00
      vertex   4.661146e+00 5.895103e-01 0.000000e+00
      vertex   4.727662e+00 2.980845e-01 4.000000e+00
    endloop
  endfacet
  facet normal -9.749279e-01 -2.225209e-01 -0.000000e+00
    outer loop
      vertex   4.727662e+00 2.980845e-01 4.000000e+00
      vertex   4.661146e+00 5.895103e-01 0.000000e+00
      vertex   4.727662e+00 2.980845e-01 0.000000e+00
    endloop
  endfacet
  facet normal -9.972038e-01 -7.473009e-02 -0.000000e+00
    outer loop
      vertex   4.727662e+00 2.980845e-01 4.000000e+00
      vertex   4.727662e+00 2.980845e-01 0.000000e+00
      vertex   4.750000e+00 0.000000e+00 4.000000e+00
    endloop
  endfacet
  facet normal -9.972038e-01 -7.473009e-02 -0.000000e+00
    outer loop
      vertex   4.750000e+00 0.000000e+00 4.000000e+00
      vertex   4.727662e+00 2.980845e-01 0.000000e+00
      vertex   4.750000e+00 0.000000e+00 0.000000e+00
    endloop
  endfacet
  facet normal -9.972038e-01 7.473009e-02 0.000000e+00
    outer loop
      vertex   4.750000e+00 0.000000e+00 4.000000e+00
      vertex   4.750000e+00 0.000000e+00 0.000000e+00
      vertex   4.727662e+00 -2.980845e-01 4.000000e+00
    endloop
  endfacet
  facet normal -9.972038e-01 7.473009e-02 0.000000e+00
    outer loop
      vertex   4.727662e+00 -2.980845e-01 4.000000e+00
      vertex   4.750000e+00 0.000000e+00 0.000000e+00
      vertex   4.727662e+00 -2.980845e-01 0.000000e+00
    endloop
  endfacet
  facet normal -9.749279e-01 2.225209e-01 0.000000e+00
    outer loop
      vertex   4.727662e+00 -2.980845e-01 4.000000e+00
      vertex   4.727662e+00 -2.980845e-01 0.000000e+00
      vertex   4.661146e+00 -5.895103e-01 4.000000e+00
    endloop
  endfacet
  facet normal -9.749279e-01 2.225209e-01 0.000000e+00
    outer loop
      vertex   4.661146e+00 -5.895103e-01 4.000000e+00
      vertex   4.727662e+00 -2.980845e-01 0.000000e+00
      vertex   4.661146e+00 -5.895103e-01 0.000000e+00
    endloop
  endfacet
  facet normal -9.308737e-01 3.653410e-01 0.000000e+00
    outer loop
      vertex   4.661146e+00 -5.895103e-01 4.000000e+00
      vertex   4.661146e+00 -5.895103e-01 0.000000e+00
      vertex   4.551938e+00 -8.677675e-01 4.000000e+00
    endloop
  endfacet
  facet normal -9.308737e-01 3.653410e-01 0.000000e+00
    outer loop
      vertex   4.551938e+00 -8.677675e-01 4.000000e+00
      vertex   4.661146e+00 -5.895103e-01 0.000000e+00
      vertex   4.551938e+00 -8.677675e-01 0.000000e+00
    endloop
  endfacet
  facet normal -8.660254e-01 5.000000e-01 0.000000e+00
    outer loop
      vertex   4.551938e+00 -8.677675e-01 4.000000e+00
      vertex   4.551938e+00 -8.677675e-01 0.000000e+00
      vertex   4.402478e+00 -1.126640e+00 4.000000e+00
    endloop
  endfacet
  facet normal -8.660254e-01 5.000000e-01 0.000000e+00
    outer loop
      vertex   4.402478e+00 -1.126640e+00 4.000000e+00
      vertex   4.551938e+00 -8.677675e-01 0.000000e+00
      vertex   4.402478e+00 -1.126640e+00 0.000000e+00
    endloop
  endfacet
  facet normal -7.818315e-01 6.234898e-01 0.000000e+00
    outer loop
      vertex   4.402478e+00 -1.126640e+00 4.000000e+00
      vertex   4.402478e+00 -1.126640e+00 0.000000e+00
      vertex   4.216104e+00 -1.360345e+00 4.000000e+00
    endloop
  endfacet
  facet normal -7.818315e-01 6.234898e-01 0.000000e+00
    outer loop
      vertex   4.216104e+00 -1.360345e+00 4.000000e+00
      vertex   4.402478e+00 -1.126640e+00 0.000000e+00
      vertex   4.216104e+00 -1.360345e+00 0.000000e+00
    endloop
  endfacet
  facet normal -6.801727e-01 7.330519e-01 0.000000e+00
    outer loop
      vertex   4.216104e+00 -1.360345e+00 4.000000e+00
      vertex   4.216104e+00 -1.360345e+00 0.000000e+00
      vertex   3.996980e+00 -1.563663e+00 4.000000e+00
    endloop
  endfacet
  facet normal -6.801727e-01 7.330519e-01 0.000000e+00
    outer loop
      vertex   3.996980e+00 -1.563663e+00 4.000000e+00
      vertex   4.216104e+00 -1.360345e+00 0.000000e+00
      vertex   3.996980e+00 -1.563663e+00 0.000000e+00
    endloop
  endfacet
  facet normal -5.633201e-01 8.262388e-01 0.000000e+00
    outer loop
      vertex   3.996980e+00 -1.563663e+00 4.000000e+00
      vertex   3.996980e+00 -1.563663e+00 0.000000e+00
      vertex   3.750000e+00 -1.732051e+00 4.000000e+00
    endloop
  endfacet
  facet normal -5.633201e-01 8.262388e-01 0.000000e+00
    outer loop
      vertex   3.750000e+00 -1.732051e+00 4.000000e+00
      vertex   3.996980e+00 -1.563663e+00 0.000000e+00
      vertex   3.750000e+00 -1.732051e+00 0.000000e+00
    endloop
  endfacet
  facet normal -4.338837e-01 9.009689e-01 0.000000e+00
    outer loop
      vertex   3.750000e+00 -1.732051e+00 4.000000e+00
      vertex   3.750000e+00 -1.732051e+00 0.000000e+00
      vertex   3.480682e+00 -1.861747e+00 4.000000e+00
    endloop
  endfacet
  facet normal -4.338837e-01 9.009689e-01 0.000000e+00
    outer loop
      vertex   3.480682e+00 -1.861747e+00 4.000000e+00
      vertex   3.750000e+00 -1.732051e+00 0.000000e+00
      vertex   3.480682e+00 -1.861747e+00 0.000000e+00
    endloop
  endfacet
  facet normal -2.947552e-01 9.555728e-01 0.000000e+00
    outer loop
      vertex   3.480682e+00 -1.861747e+00 4.000000e+00
      vertex   3.480682e+00 -1.861747e+00 0.000000e+00
      vertex   3.195042e+00 -1.949856e+00 4.000000e+00
    endloop
  endfacet
  facet normal -2.947552e-01 9.555728e-01 0.000000e+00
    outer loop
      vertex   3.195042e+00 -1.949856e+00 4.000000e+00
      vertex   3.480682e+00 -1.861747e+00 0.000000e+00
      vertex   3.195042e+00 -1.949856e+00 0.000000e+00
    endloop
  endfacet
  facet normal -1.490423e-01 9.888308e-01 0.000000e+00
    outer loop
      vertex   3.195042e+00 -1.949856e+00 4.000000e+00
      vertex   3.195042e+00 -1.949856e+00 0.000000e+00
      vertex   2.899460e+00 -1.994408e+00 4.000000e+00
    endloop
  endfacet
  facet normal -1.490423e-01 9.888308e-01 0.000000e+00
    outer loop
      vertex   2.899460e+00 -1.994408e+00 4.000000e+00
      vertex   3.195042e+00 -1.949856e+00 0.000000e+00
      vertex   2.899460e+00 -1.994408e+00 0.000000e+00
    endloop
  endfacet
  facet normal 7.428219e-16 1.000000e+00 0.000000e+00
    outer loop
      vertex   2.899460e+00 -1.994408e+00 4.000000e+00
      vertex   2.899460e+00 -1.994408e+00 0.000000e+00
      vertex   2.600540e+00 -1.994408e+00 4.000000e+00
    endloop
  endfacet
  facet normal 7.428219e-16 1.000000e+00 0.000000e+00
    outer loop
      vertex   2.600540e+00 -1.994408e+00 4.000000e+00
      vertex   2.899460e+00 -1.994408e+00 0.000000e+00
      vertex   2.600540e+00 -1.994408e+00 0.000000e+00
    endloop
  endfacet
  facet normal 1.490423e-01 9.888308e-01 0.000000e+00
    outer loop
      vertex   2.600540e+00 -1.994408e+00 4.000000e+00
      vertex   2.600540e+00 -1.994408e+00 0.000000e+00
      vertex   2.304958e+00 -1.949856e+00 4.000000e+00
    endloop
  endfacet
  facet normal 1.490423e-01 9.888308e-01 0.000000e+00
    outer loop
      vertex   2.304958e+00 -1.949856e+00 4.000000e+00
      vertex   2.600540e+00 -1.994408e+00 0.000000e+00
      vertex   2.304958e+00 -1.949856e+00 0.000000e+00
    endloop
  endfacet
  facet normal 2.947552e-01 9.555728e-01 0.000000e+00
    outer loop
      vertex   2.304958e+00 -1.949856e+00 4.000000e+00
      vertex   2.304958e+00 -1.949856e+00 0.000000e+00
      vertex   2.019318e+00 -1.861747e+00 4.000000e+00
    endloop
  endfacet
  facet normal 2.947552e-01 9.555728e-01 0.000000e+00
    outer loop
      vertex   2.019318e+00 -1.861747e+00 4.000000e+00
      vertex   2.304958e+00 -1.949856e+00 0.000000e+00
      vertex   2.019318e+00 -1.861747e+00 0.000000e+00
    endloop
  endfacet
  facet normal 4.338837e-01 9.009689e-01 0.000000e+00
    outer loop
      vertex   2.019318e+00 -1.861747e+00 4.000000e+00
      vertex   2.019318e+00 -1.861747e+00 0.000000e+00
      vertex   1.750000e+00 -1.732051e+00 4.000000e+00
    endloop
  endfacet
  facet normal 4.338837e-01 9.009689e-01 0.000000e+00
    outer loop
      vertex   1.750000e+00 -1.732051e+00 4.000000e+00
      vertex   2.019318e+00 -1.861747e+00 0.000000e+00
      vertex   1.750000e+00 -1.732051e+00 0.000000e+00
    endloop
  endfacet
  facet normal 5.633201e-01 8.262388e-01 0.000000e+00
    outer loop
      vertex   1.750000e+00 -1.732051e+00 4.000000e+00
      vertex   1.750000e+00 -1.732051e+00 0.000000e+00
      vertex   1.503020e+00 -1.563663e+00 4.000000e+00
    endloop
  endfacet
  facet normal 5.633201e-01 8.262388e-01 0.000000e+00
    outer loop
      vertex   1.503020e+00 -1.563663e+00 4.000000e+00
      vertex   1.750000e+00 -1.732051e+00 0.000000e+00
      vertex   1.503020e+00 -1.563663e+00 0.000000e+00
    endloop
  endfacet
  facet normal 6.801727e-01 7.330519e-01 0.000000e+00
    outer loop
      vertex   1.503020e+00 -1.563663e+00 4.000000e+00
      vertex   1.503020e+00 -1.563663e+00 0.000000e+00
      vertex   1.283896e+00 -1.360345e+00 4.000000e+00
    endloop
  endfacet
  facet normal 6.801727e-01 7.330519e-01 0.000000e+00
    outer loop
      vertex   1.283896e+00 -1.360345e+00 4.000000e+00
      vertex   1.503020e+00 -1.563663e+00 0.000000e+00
      vertex   1.283896e+00 -1.360345e+00 0.000000e+00
    endloop
  endfacet
  facet normal 7.818315e-01 6.234898e-01 0.000000e+00
    outer loop
      vertex   1.283896e+00 -1.360345e+00 4.000000e+00
      vertex   1.283896e+00 -1.360345e+00 0.000000e+00
      vertex   1.097522e+00 -1.126640e+00 4.000000e+00
    endloop
  endfacet
  facet normal 7.818315e-01 6.234898e-01 0.000000e+00
    outer loop
      vertex   1.097522e+00 -1.126640e+00 4.000000e+00
      vertex   1.283896e+00 -1.360345e+00 0.000000e+00
      vertex   1.097522e+00 -1.126640e+00 0.000000e+00
    endloop
  endfacet
  facet normal 8.660254e-01 5.000000e-01 0.000000e+00
    outer loop
      vertex   1.097522e+00 -1.126640e+00 4.000000e+00
      vertex   1.097522e+00 -1.126640e+00 0.000000e+00
      vertex   9.480623e-01 -8.677675e-01 4.000000e+00
    endloop
  endfacet
  facet normal 8.660254e-01 5.000000e-01 0.000000e+00
    outer loop
      vertex   9.480623e-01 -8.677675e-01 4.000000e+00
      vertex   1.097522e+00 -1.126640e+00 0.000000e+00
      vertex   9.480623e-01 -8.677675e-01 0.000000e+00
    endloop
  endfacet
  facet normal 9.308737e-01 3.653410e-01 0.000000e+00
    outer loop
      vertex   9.480623e-01 -8.677675e-01 4.000000e+00
      vertex   9.480623e-01 -8.677675e-01 0.000000e+00
      vertex   8.388544e-01 -5.895103e-01 4.000000e+00
    endloop
  endfacet
  facet normal 9.308737e-01 3.653410e-01 0.000000e+00
    outer loop
      vertex   8.388544e-01 -5.895103e-01 4.000000e+00
      vertex   9.480623e-01 -8.677675e-01 0.000000e+00
      vertex   8.388544e-01 -5.895103e-01 0.000000e+00
    endloop
  endfacet
  facet normal 9.749279e-01 2.225209e-01 0.000000e+00
    outer loop
      vertex   8.388544e-01 -5.895103e-01 4.000000e+00
      vertex   8.388544e-01 -5.895103e-01 0.000000e+00
      vertex   7.723383e-01 -2.980845e-01 4.000000e+00
    endloop
  endfacet
  facet normal 9.749279e-01 2.225209e-01 0.000000e+00
    outer loop
      vertex   7.723383e-01 -2.980845e-01 4.000000e+00
      vertex   8.388544e-01 -5.895103e-01 0.000000e+00
      vertex   7.723383e-01 -2.980845e-01 0.000000e+00
    endloop
  endfacet
  facet normal 1.000000e+00 0.000000e+00 0.000000e+00
    outer loop
      vertex   5.500000e+00 -4.500000e+00 0.000000e+00
      vertex   5.500000e+00 4.500000e+00 0.000000e+00
      vertex   5.500000e+00 -4.500000e+00 4.000000e+00
    endloop
  endfacet
  facet normal 1.000000e+00 -0.000000e+00 0.000000e+00
    outer loop
      vertex   5.500000e+00 -4.500000e+00 4.000000e+00
      vertex   5.500000e+00 4.500000e+00 0.000000e+00
      vertex   5.500000e+00 4.500000e+00 4.000000e+00
    endloop
  endfacet
  facet normal 0.000000e+00 -1.000000e+00 0.000000e+00
    outer loop
      vertex   -5.500000e+00 -4.500000e+00 0.000000e+00
      vertex   5.500000e+00 -4.500000e+00 0.000000e+00
      vertex   -5.500000e+00 -4.500000e+00 4.000000e+00
    endloop
  endfacet
  facet normal 0.000000e+00 -1.000000e+00 0.000000e+00
    outer loop
      vertex   -5.500000e+00 -4.500000e+00 4.000000e+00
      vertex   5.500000e+00 -4.500000e+00 0.000000e+00
      vertex   5.500000e+00 -4.500000e+00 4.000000e+00
    endloop
  endfacet
  facet normal 0.000000e+00 1.000000e+00 -0.000000e+00
    outer loop
      vertex   5.500000e+00 4.500000e+00 0.000000e+00
      vertex   -5.500000e+00 4.500000e+00 0.000000e+00
      vertex   5.500000e+00 4.500000e+00 4.000000e+00
    endloop
  endfacet
  facet normal 0.000000e+00 1.000000e+00 0.000000e+00
    outer loop
      vertex   5.500000e+00 4.500000e+00 4.000000e+00
      vertex   -5.500000e+00 4.500000e+00 0.000000e+00
      vertex   -5.500000e+00 4.500000e+00 4.000000e+00
    endloop
  endfacet
  facet normal -0.000000e+00 0.000000e+00 -1.000000e+00
    outer loop
      vertex   7.723383e-01 -2.980845e-01 0.000000e+00
      vertex   -5.500000e+00 -4.500000e+00 0.000000e+00
      vertex   7.500000e-01 -2.449294e-16 0.000000e+00
    endloop
  endfacet
  facet normal -0.000000e+00 0.000000e+00 -1.000000e+00
    outer loop
      vertex   7.500000e-01 -2.449294e-16 0.000000e+00
      vertex   -5.500000e+00 -4.500000e+00 0.000000e+00
      vertex   -5.500000e+00 4.500000e+00 0.000000e+00
    endloop
  endfacet
  facet normal 0.000000e+00 0.000000e+00 -1.000000e+00
    outer loop
      vertex   7.500000e-01 -2.449294e-16 0.000000e+00
      vertex   -5.500000e+00 4.500000e+00 0.000000e+00
      vertex   7.723383e-01 2.980845e-01 0.000000e+00
    endloop
  endfacet
  facet normal 0.000000e+00 0.000000e+00 -1.000000e+00
    outer loop
      vertex   7.723383e-01 2.980845e-01 0.000000e+00
      vertex   -5.500000e+00 4.500000e+00 0.000000e+00
      vertex   8.388544e-01 5.895103e-01 0.000000e+00
    endloop
  endfacet
  facet normal 0.000000e+00 0.000000e+00 -1.000000e+00
    outer loop
      vertex   8.388544e-01 5.895103e-01 0.000000e+00
      vertex   -5.500000e+00 4.500000e+00 0.000000e+00
      vertex   9.480623e-01 8.677675e-01 0.000000e+00
    endloop
  endfacet
  facet normal 0.000000e+00 0.000000e+00 -1.000000e+00
    outer loop
      vertex   9.480623e-01 8.677675e-01 0.000000e+00
      vertex   -5.500000e+00 4.500000e+00 0.000000e+00
      vertex   1.097522e+00 1.126640e+00 0.000000e+00
    endloop
  endfacet
  facet normal 0.000000e+00 0.000000e+00 -1.000000e+00
    outer loop
      vertex   1.097522e+00 1.126640e+00 0.000000e+00
      vertex   -5.500000e+00 4.500000e+00 0.000000e+00
      vertex   1.283896e+00 1.360345e+00 0.000000e+00
    endloop
  endfacet
  facet normal 0.000000e+00 0.000000e+00 -1.000000e+00
    outer loop
      vertex   1.283896e+00 1.360345e+00 0.000000e+00
      vertex   -5.500000e+00 4.500000e+00 0.000000e+00
      vertex   1.503020e+00 1.563663e+00 0.000000e+00
    endloop
  endfacet
  facet normal 0.000000e+00 0.000000e+00 -1.000000e+00
    outer loop
      vertex   1.503020e+00 1.563663e+00 0.000000e+00
      vertex   -5.500000e+00 4.500000e+00 0.000000e+00
      vertex   1.750000e+00 1.732051e+00 0.000000e+00
    endloop
  endfacet
  facet normal 0.000000e+00 0.000000e+00 -1.000000e+00
    outer loop
      vertex   1.750000e+00 1.732051e+00 0.000000e+00
      vertex   -5.500000e+00 4.500000e+00 0.000000e+00
      vertex   2.019318e+00 1.861747e+00 0.000000e+00
    endloop
  endfacet
  facet normal 0.000000e+00 0.000000e+00 -1.000000e+00
    outer loop
      vertex   2.019318e+00 1.861747e+00 0.000000e+00
      vertex   -5.500000e+00 4.500000e+00 0.000000e+00
      vertex   5.500000e+00 4.500000e+00 0.000000e+00
    endloop
  endfacet
  facet normal 0.000000e+00 0.000000e+00 -1.000000e+00
    outer loop
      vertex   2.019318e+00 1.861747e+00 0.000000e+00
      vertex   5.500000e+00 4.500000e+00 0.000000e+00
      vertex   2.304958e+00 1.949856e+00 0.000000e+00
    endloop
  endfacet
  facet normal 0.000000e+00 0.000000e+00 -1.000000e+00
    outer loop
      vertex   2.304958e+00 1.949856e+00 0.000000e+00
      vertex   5.500000e+00 4.500000e+00 0.000000e+00
      vertex   2.600540e+00 1.994408e+00 0.000000e+00
    endloop
  endfacet
  facet normal 0.000000e+00 0.000000e+00 -1.000000e+00
    outer loop
      vertex   2.600540e+00 1.994408e+00 0.000000e+00
      vertex   5.500000e+00 4.500000e+00 0.000000e+00
      vertex   2.899460e+00 1.994408e+00 0.000000e+00
    endloop
  endfacet
  facet normal 0.000000e+00 0.000000e+00 -1.000000e+00
    outer loop
      vertex   2.899460e+00 1.994408e+00 0.000000e+00
      vertex   5.500000e+00 4.500000e+00 0.000000e+00
      vertex   3.195042e+00 1.949856e+00 0.000000e+00
    endloop
  endfacet
  facet normal 0.000000e+00 0.000000e+00 -1.000000e+00
    outer loop
      vertex   3.195042e+00 1.949856e+00 0.000000e+00
      vertex   5.500000e+00 4.500000e+00 0.000000e+00
      vertex   3.480682e+00 1.861747e+00 0.000000e+00
    endloop
  endfacet
  facet normal 0.000000e+00 0.000000e+00 -1.000000e+00
    outer loop
      vertex   3.480682e+00 1.861747e+00 0.000000e+00
      vertex   5.500000e+00 4.500000e+00 0.000000e+00
      vertex   3.750000e+00 1.732051e+00 0.000000e+00
    endloop
  endfacet
  facet normal 0.000000e+00 0.000000e+00 -1.000000e+00
    outer loop
      vertex   3.750000e+00 1.732051e+00 0.000000e+00
      vertex   5.500000e+00 4.500000e+00 0.000000e+00
      vertex   3.996980e+00 1.563663e+00 0.000000e+00
    endloop
  endfacet
  facet normal 0.000000e+00 0.000000e+00 -1.000000e+00
    outer loop
      vertex   3.996980e+00 1.563663e+00 0.000000e+00
      vertex   5.500000e+00 4.500000e+00 0.000000e+00
      vertex   4.216104e+00 1.360345e+00 0.000000e+00
    endloop
  endfacet
  facet normal 0.000000e+00 0.000000e+00 -1.000000e+00
    outer loop
      vertex   4.216104e+00 1.360345e+00 0.000000e+00
      vertex   5.500000e+00 4.500000e+00 0.000000e+00
      vertex   4.402478e+00 1.126640e+00 0.000000e+00
    endloop
  endfacet
  facet normal 0.000000e+00 0.000000e+00 -1.000000e+00
    outer loop
      vertex   4.402478e+00 1.126640e+00 0.000000e+00
      vertex   5.500000e+00 4.500000e+00 0.000000e+00
      vertex   4.551938e+00 8.677675e-01 0.000000e+00
    endloop
  endfacet
  facet normal 0.000000e+00 0.000000e+00 -1.000000e+00
    outer loop
      vertex   4.551938e+00 8.677675e-01 0.000000e+00
      vertex   5.500000e+00 4.500000e+00 0.000000e+00
      vertex   4.661146e+00 5.895103e-01 0.000000e+00
    endloop
  endfacet
  facet normal 0.000000e+00 0.000000e+00 -1.000000e+00
    outer loop
      vertex   4.661146e+00 5.895103e-01 0.000000e+00
      vertex   5.500000e+00 4.500000e+00 0.000000e+00
      vertex   4.727662e+00 2.980845e-01 0.000000e+00
    endloop
  endfacet
  facet normal 0.000000e+00 0.000000e+00 -1.000000e+00
    outer loop
      vertex   4.727662e+00 2.980845e-01 0.000000e+00
      vertex   5.500000e+00 4.500000e+00 0.000000e+00
      vertex   4.750000e+00 0.000000e+00 0.000000e+00
    endloop
  endfacet
  facet normal 0.000000e+00 0.000000e+00 -1.000000e+00
    outer loop
      vertex   4.750000e+00 0.000000e+00 0.000000e+00
      vertex   5.500000e+00 4.500000e+00 0.000000e+00
      vertex   5.500000e+00 -4.500000e+00 0.000000e+00
    endloop
  endfacet
  facet normal 0.000000e+00 -0.000000e+00 -1.000000e+00
    outer loop
      vertex   4.750000e+00 0.000000e+00 0.000000e+00
      vertex   5.500000e+00 -4.500000e+00 0.000000e+00
      vertex   4.727662e+00 -2.980845e-01 0.000000e+00
    endloop
  endfacet
  facet normal 0.000000e+00 -0.000000e+00 -1.000000e+00
    outer loop
      vertex   4.727662e+00 -2.980845e-01 0.000000e+00
      vertex   5.500000e+00 -4.500000e+00 0.000000e+00
      vertex   4.661146e+00 -5.895103e-01 0.000000e+00
    endloop
  endfacet
  facet normal 0.000000e+00 -0.000000e+00 -1.000000e+00
    outer loop
      vertex   4.661146e+00 -5.895103e-01 0.000000e+00
      vertex   5.500000e+00 -4.500000e+00 0.000000e+00
      vertex   4.551938e+00 -8.677675e-01 0.000000e+00
    endloop
  endfacet
  facet normal 0.000000e+00 -0.000000e+00 -1.000000e+00
    outer loop
      vertex   4.551938e+00 -8.677675e-01 0.000000e+00
      vertex   5.500000e+00 -4.500000e+00 0.000000e+00
      vertex   4.402478e+00 -1.126640e+00 0.000000e+00
    endloop
  endfacet
  facet normal 0.000000e+00 -0.000000e+00 -1.000000e+00
    outer loop
      vertex   4.402478e+00 -1.126640e+00 0.000000e+00
      vertex   5.500000e+00 -4.500000e+00 0.000000e+00
      vertex   4.216104e+00 -1.360345e+00 0.000000e+00
    endloop
  endfacet
  facet normal 0.000000e+00 -0.000000e+00 -1.000000e+00
    outer loop
      vertex   4.216104e+00 -1.360345e+00 0.000000e+00
      vertex   5.500000e+00 -4.500000e+00 0.000000e+00
      vertex   3.996980e+00 -1.563663e+00 0.000000e+00
    endloop
  endfacet
  facet normal 0.000000e+00 -0.000000e+00 -1.000000e+00
    outer loop
      vertex   3.996980e+00 -1.563663e+00 0.000000e+00
      vertex   5.500000e+00 -4.500000e+00 0.000000e+00
      vertex   3.750000e+00 -1.732051e+00 0.000000e+00
    endloop
  endfacet
  facet normal 0.000000e+00 -0.000000e+00 -1.000000e+00
    outer loop
      vertex   3.750000e+00 -1.732051e+00 0.000000e+00
      vertex   5.500000e+00 -4.500000e+00 0.000000e+00
      vertex   3.480682e+00 -1.861747e+00 0.000000e+00
    endloop
  endfacet
  facet normal 0.000000e+00 -0.000000e+00 -1.000000e+00
    outer loop
      vertex   3.480682e+00 -1.861747e+00 0.000000e+00
      vertex   5.500000e+00 -4.500000e+00 0.000000e+00
      vertex   3.195042e+00 -1.949856e+00 0.000000e+00
    endloop
  endfacet
  facet normal 0.000000e+00 -0.000000e+00 -1.000000e+00
    outer loop
      vertex   3.195042e+00 -1.949856e+00 0.000000e+00
      vertex   5.500000e+00 -4.500000e+00 0.000000e+00
      vertex   2.899460e+00 -1.994408e+00 0.000000e+00
    endloop
  endfacet
  facet normal -0.000000e+00 -0.000000e+00 -1.000000e+00
    outer loop
      vertex   2.899460e+00 -1.994408e+00 0.000000e+00
      vertex   5.500000e+00 -4.500000e+00 0.000000e+00
      vertex   2.600540e+00 -1.994408e+00 0.000000e+00
    endloop
  endfacet
  facet normal -0.000000e+00 -0.000000e+00 -1.000000e+00
    outer loop
      vertex   2.600540e+00 -1.994408e+00 0.000000e+00
      vertex   5.500000e+00 -4.500000e+00 0.000000e+00
      vertex   2.304958e+00 -1.949856e+00 0.000000e+00
    endloop
  endfacet
  facet normal -0.000000e+00 -0.000000e+00 -1.000000e+00
    outer loop
      vertex   2.304958e+00 -1.949856e+00 0.000000e+00
      vertex   5.500000e+00 -4.500000e+00 0.000000e+00
      vertex   2.019318e+00 -1.861747e+00 0.000000e+00
    endloop
  endfacet
  facet normal 0.000000e+00 -0.000000e+00 -1.000000e+00
    outer loop
      vertex   2.019318e+00 -1.861747e+00 0.000000e+00
      vertex   5.500000e+00 -4.500000e+00 0.000000e+00
      vertex   -5.500000e+00 -4.500000e+00 0.000000e+00
    endloop
  endfacet
  facet normal -0.000000e+00 0.000000e+00 -1.000000e+00
    outer loop
      vertex   2.019318e+00 -1.861747e+00 0.000000e+00
      vertex   -5.500000e+00 -4.500000e+00 0.000000e+00
      vertex   1.750000e+00 -1.732051e+00 0.000000e+00
    endloop
  endfacet
  facet normal -0.000000e+00 0.000000e+00 -1.000000e+00
    outer loop
      vertex   1.750000e+00 -1.732051e+00 0.000000e+00
      vertex   -5.500000e+00 -4.500000e+00 0.000000e+00
      vertex   1.503020e+00 -1.563663e+00 0.000000e+00
    endloop
  endfacet
  facet normal -0.000000e+00 0.000000e+00 -1.000000e+00
    outer loop
      vertex   1.503020e+00 -1.563663e+00 0.000000e+00
      vertex   -5.500000e+00 -4.500000e+00 0.000000e+00
      vertex   1.283896e+00 -1.360345e+00 0.000000e+00
    endloop
  endfacet
  facet normal -0.000000e+00 0.000000e+00 -1.000000e+00
    outer loop
      vertex   1.283896e+00 -1.360345e+00 0.000000e+00
      vertex   -5.500000e+00 -4.500000e+00 0.000000e+00
      vertex   1.097522e+00 -1.126640e+00 0.000000e+00
    endloop
  endfacet
  facet normal -0.000000e+00 0.000000e+00 -1.000000e+00
    outer loop
      vertex   1.097522e+00 -1.126640e+00 0.000000e+00
      vertex   -5.500000e+00 -4.500000e+00 0.000000e+00
      vertex   9.480623e-01 -8.677675e-01 0.000000e+00
    endloop
  endfacet
  facet normal -0.000000e+00 0.000000e+00 -1.000000e+00
    outer loop
      vertex   9.480623e-01 -8.677675e-01 0.000000e+00
      vertex   -5.500000e+00 -4.500000e+00 0.000000e+00
      vertex   8.388544e-01 -5.895103e-01 0.000000e+00
    endloop
  endfacet
  facet normal -0.000000e+00 0.000000e+00 -1.000000e+00
    outer loop
      vertex   8.388544e-01 -5.895103e-01 0.000000e+00
      vertex   -5.500000e+00 -4.500000e+00 0.000000e+00
      vertex   7.723383e-01 -2.980845e-01 0.000000e+00
    endloop
  endfacet
endsolid
